<?xml version="1.0" standalone="no"?>
<!DOCTYPE svg PUBLIC "-//W3C//DTD SVG 20010904//EN"
 "http://www.w3.org/TR/2001/REC-SVG-20010904/DTD/svg10.dtd">
<svg version="1.0" xmlns="http://www.w3.org/2000/svg"
 width="587.000000pt" height="587.000000pt" viewBox="0 0 587.000000 587.000000"
 preserveAspectRatio="xMidYMid meet">
<metadata>
Created by potrace 1.11, written by Peter Selinger 2001-2013
</metadata>
<g transform="translate(0.000000,587.000000) scale(0.100000,-0.100000)"
fill="#000000" stroke="none">
<path d="M2348 5285 c-2 -1 -29 -5 -61 -8 -67 -6 -83 -17 -209 -141 -48 -47
-105 -96 -126 -110 -69 -43 -291 -101 -424 -110 -34 -3 -97 -17 -138 -31 -138
-49 -248 -84 -282 -91 -113 -21 -225 -5 -265 38 -12 13 -31 48 -42 79 -22 59
-41 88 -109 164 l-42 48 -55 -18 c-30 -11 -55 -22 -55 -25 0 -4 -6 -7 -13 -7
-6 0 -31 -12 -55 -27 -157 -99 -295 -347 -336 -606 -18 -106 -14 -278 7 -351
25 -84 109 -152 179 -144 75 9 135 63 209 189 63 106 140 213 206 283 65 70
53 67 253 78 217 13 405 38 416 56 3 5 9 7 14 4 17 -11 125 39 165 76 53 49
99 68 149 62 70 -7 116 -49 116 -104 0 -11 10 -43 22 -71 l22 -51 -30 -87
c-33 -97 -33 -79 -18 -425 13 -298 7 -980 -11 -1155 -2 -19 -6 -85 -9 -146 -4
-61 -8 -121 -11 -135 -2 -13 -6 -64 -10 -114 -3 -49 -8 -99 -10 -110 -3 -11
-7 -47 -10 -80 -3 -33 -8 -69 -10 -80 -24 -106 -30 -235 -14 -308 7 -34 13
-107 13 -162 -1 -121 -27 -201 -77 -239 -18 -14 -120 -54 -227 -89 -263 -88
-265 -89 -301 -145 -42 -67 -78 -185 -75 -252 3 -106 91 -231 200 -288 39 -20
65 -26 111 -25 75 0 113 16 217 90 96 68 211 140 387 243 184 107 244 170 243
251 -1 48 -14 72 -72 134 -84 90 -84 89 -85 254 -2 168 5 242 39 438 9 50 19
118 21 150 2 32 5 58 5 58 3 0 8 53 14 135 3 47 8 96 10 110 2 14 7 48 11 75
11 89 37 207 61 281 36 113 37 121 3 219 -31 89 -31 92 -34 325 -3 213 -9 316
-21 374 -11 49 -5 196 11 261 8 39 36 112 61 163 25 52 52 126 61 165 18 78
13 120 -25 248 -38 128 -12 231 88 339 83 91 114 182 90 269 -16 62 -32 75
-88 77 -28 1 -52 1 -54 -1z"/>
<path d="M3599 5260 c-149 -78 -156 -316 -19 -578 19 -36 22 -53 17 -105 -3
-34 -9 -75 -12 -92 -38 -176 -28 -227 72 -373 25 -37 50 -78 55 -92 5 -14 15
-36 20 -50 15 -37 16 -127 2 -190 -25 -106 -31 -210 -39 -740 -12 -810 -20
-1104 -31 -1121 -5 -8 -13 -179 -19 -377 -5 -200 -14 -298 -32 -347 -55 -150
-33 -185 152 -245 142 -46 218 -97 405 -268 80 -73 197 -114 281 -98 41 7 161
115 201 181 52 84 65 183 34 257 -32 75 -130 156 -226 186 -40 13 -72 19 -205
37 -220 30 -294 160 -296 513 0 87 5 123 26 192 14 47 37 135 51 195 14 61 40
155 58 210 36 111 45 211 25 273 -7 20 -27 59 -45 85 l-33 48 1 133 c0 74 -2
139 -6 144 -16 26 -21 148 -12 257 4 39 9 94 11 123 3 28 7 76 10 105 15 146
20 371 10 482 -7 79 -32 175 -62 244 -14 31 -28 84 -30 118 -8 92 5 102 187
137 80 15 154 29 165 31 65 11 44 19 340 -135 72 -37 137 -67 145 -65 18 3
133 12 245 20 l80 6 39 -61 c38 -59 85 -163 86 -188 1 -41 112 -225 161 -267
43 -35 73 -40 126 -20 60 23 177 134 210 199 34 67 40 168 18 279 -35 176
-147 477 -215 582 -22 34 -40 68 -40 77 0 71 -152 118 -231 72 -47 -28 -116
-116 -129 -165 -16 -58 -56 -114 -98 -140 -49 -28 -153 -49 -229 -44 -69 4
-299 54 -383 84 -57 20 -94 27 -195 36 -95 9 -196 33 -245 58 -39 20 -47 30
-65 83 -28 82 -80 164 -161 256 -71 80 -109 93 -175 58z"/>
<path d="M553 2524 c-66 -28 -105 -132 -97 -256 13 -209 46 -287 184 -432 83
-87 159 -131 206 -120 62 14 115 100 112 180 0 18 16 68 38 115 32 67 39 93
38 138 -2 72 -54 197 -102 247 -43 44 -162 103 -220 108 -23 3 -52 12 -64 20
-27 19 -52 19 -95 0z"/>
<path d="M5178 2335 c-3 -3 -43 -8 -89 -11 -127 -8 -127 -8 -154 -67 -34 -75
-93 -284 -98 -351 -7 -79 14 -144 70 -214 88 -110 119 -128 201 -119 105 12
246 82 288 144 29 43 46 140 39 216 -8 77 -54 213 -97 285 -51 85 -133 144
-160 117z"/>
</g>
</svg>
